PathFileType	4	(X/Y/Z)	C:/Users/beibeiliu/ov580/test_trc/capture2\sequence.13_training_dense_right.trc
DataRate	CameraRate	NumFrames	NumMarkers	Units	OrigDataRate	OrigDataStartFrame	OrigNumFrames
120	120	22	19	mm	120	185	369
Frame#	Time	ThumbCMC			ThumbMCP			ThumbIP			ThumbTip			IndexMCP			IndexPIP			IndexTip			MiddleMCP			MiddlePIP			MiddleTip			RingMCP			RingPIP			RingTip			PinkyMCP			PinkyPIP			PinkyTip			BackHand1			BackHand2			BackHand3	
		X0	Y0	Z0	X1	Y1	Z1	X2	Y2	Z2	X3	Y3	Z3	X4	Y4	Z4	X5	Y5	Z5	X6	Y6	Z6	X7	Y7	Z7	X8	Y8	Z8	X9	Y9	Z9	X10	Y10	Z10	X11	Y11	Z11	X12	Y12	Z12	X13	Y13	Z13	X14	Y14	Z14	X15	Y15	Z15	X16	Y16	Z16	X17	Y17	Z17	X18	Y18	Z18	
184	1.53333	138.071	71.0179	-2.7435	108.66	60.1233	-10.3113	85.2597	54.0009	-24.6153	73.8882	40.3654	-39.2533	119.122	51.7346	-67.8428	90.8586	39.2654	-72.0319	70.7569	25.5383	-59.5516	131.729	25.6109	-73.7446	107.778	12.7173	-81.3856	72.6909	3.29226	-71.4016	138.988	11.0135	-66.7139	111.72	0.435862	-77.9026	82.9318	-7.984	-68.7829	146.827	-4.13321	-51.9501	123.538	-19.7616	-62.9736	95.0293	-21.862	-59.4365	174.937	28.1215	-30.1352	188.917	35.2889	-6.05637	171.2	59.555	-19.8887	
185	1.54167	137.872	70.0833	0.199234	106.177	60.9759	-6.16785	87.9228	49.7276	-23.5383	73.539	36.3757	-39.9476	118.589	50.448	-68.9828	94.9625	38.9391	-74.221	71.0005	19.1112	-59.2738	131.616	30.2567	-76.5946	107.475	11.9173	-83.1202	80.5157	1.24103	-74.1278	140.611	10.8914	-70.7243	120.976	-2.59313	-78.4754	89.18	-8.31185	-72.9136	152.152	-0.701583	-53.2211	128.288	-16.027	-66.132	102.633	-22.8981	-60.9687	175.996	31.9609	-32.7933	190.993	38.3207	-1.48102	170.931	64.8043	-18.092	
186	1.55	135.748	70.7787	1.51202	104.84	57.4696	-8.14926	87.0919	45.4366	-27.1142	74.2416	32.9472	-42.148	120.73	53.722	-67.3518	94.1384	37.5907	-73.9452	75.1141	17.2201	-62.8453	136.188	33.7222	-74.8865	113.624	17.005	-86.4056	82.5001	-2.08063	-76.3609	146.667	13.3308	-71.7392	125.162	-1.24207	-79.8195	96.0376	-10.3432	-74.7585	158.485	-1.48393	-57.8014	134.813	-10.655	-68.0538	108.391	-18.883	-64.3033	178.647	37.9661	-30.4336	193.003	43.7662	-4.0971	168.121	68.1671	-22.7981	
187	1.55833	133.213	71.3626	2.49394	106.21	53.6079	-10.8024	85.9986	44.0429	-25.3279	74.2303	31.0369	-43.3144	123.24	53.2036	-68.2801	93.9633	36.7721	-76.4415	80.2095	13.929	-67.5889	138.583	36.1297	-75.2781	112.941	17.2332	-87.9051	89.2747	-3.92524	-78.6983	149.079	19.7758	-73.3075	129.542	4.79478	-82.2342	100.233	-11.8681	-75.7003	162.517	3.88299	-60.7267	140.132	-11.5985	-70.0595	111.715	-19.5286	-64.1532	182.924	42.3334	-30.3787	191.13	50.9903	-5.92576	165.322	72.2706	-20.9606	
188	1.56667	131.312	72.1042	2.07683	102.536	55.6561	-9.47968	87.4623	42.7345	-31.7759	77.2795	30.1807	-47.9883	120.809	57.6278	-70.6317	99.3121	36.1131	-77.8974	85.5538	13.3466	-71.0952	139.604	41.6876	-79.3926	124.567	19.6935	-89.9437	95.8795	-3.96118	-82.8927	152.565	27.6261	-73.1358	136.073	6.96408	-85.015	109.304	-11.9211	-79.0373	165.745	15.1424	-59.8544	145.786	-2.75319	-73.7336	117.921	-14.9274	-68.452	182.215	49.7201	-28.0163	189.44	59.3562	-6.05942	167.519	76.6078	-16.4338	
189	1.575	124.687	74.476	-0.655493	101.892	55.0899	-15.0852	85.7962	41.9995	-36.069	82.2735	28.6553	-53.6401	122.939	61.8391	-68.7521	99.9998	40.0584	-80.3528	87.1616	17.3408	-74.391	142.115	47.1251	-80.0181	121.996	24.7601	-93.9992	102.371	1.61259	-89.6425	154.984	31.9005	-76.711	138.382	13.3429	-87.6151	118.309	-9.23801	-82.7998	172.788	19.0857	-59.2521	150.676	3.42775	-75.391	128.761	-11.2275	-72.0479	183.614	56.5878	-29.4002	188.309	66.1018	-2.52361	160.8	82.968	-16.3489	
190	1.58333	125.257	75.3745	2.63017	103.227	54.8537	-16.5869	89.0212	42.6751	-35.4009	84.946	28.7094	-58.3499	121.622	65.3324	-71.2188	103.972	43.7154	-82.814	91.6231	16.0794	-78.5549	145.914	52.5708	-77.5226	129.26	26.667	-94.9604	109.265	0.255928	-91.899	157.965	36.9668	-77.2754	144.7	17.9779	-89.1682	121.451	-6.68983	-87.6072	173.659	28.2034	-59.7337	159.11	7.69287	-76.7895	137.21	-10.2896	-75.9806	182.659	60.972	-30.899	187.436	70.9887	0.963412	157.924	87.8562	-15.6282	
191	1.59167	124.375	74.4905	-3.33528	106.446	54.4347	-15.0233	89.3183	40.9169	-40.8919	85.7702	29.8013	-57.0811	124.009	64.9881	-74.6514	107.818	46.191	-85.4994	96.1805	21.7008	-83.8711	147.144	53.6116	-82.3912	134.95	32.8925	-96.47	114.005	5.83452	-96.0258	164.54	43.4472	-74.958	148.804	23.4761	-91.0382	127.536	0.726705	-91.6332	179.624	29.9192	-62.7406	166.174	8.68132	-77.0698	140.499	-6.37645	-80.2812	180.781	70.8486	-29.9228	184.198	75.7212	0.408356	158.41	87.3747	-17.9352	
192	1.6	122.52	76.5915	-2.63599	101.943	54.4004	-17.7408	94.8538	42.4681	-42.4899	89.1612	30.4797	-60.004	122.252	72.2776	-72.6761	112.919	50.8451	-86.8569	99.496	20.567	-85.7851	149.305	59.6606	-82.0117	134.71	37.8652	-97.8202	116.809	10.633	-99.913	163.083	48.5559	-78.8218	155.146	27.3366	-92.4607	130.011	4.90738	-95.1257	177.876	37.0989	-64.9553	168.449	14.6366	-79.5448	150.802	-5.58169	-82.8732	180.924	73.0221	-28.8037	182.934	79.5965	-2.25741	156.462	93.8504	-12.4777	
193	1.60833	124.528	76.6398	0.477389	104.233	54.245	-22.2066	94.5286	42.8672	-39.02	91.8212	31.2504	-62.7973	124.937	76.2011	-71.0737	111.374	54.9531	-87.5427	100.027	24.6343	-87.4485	147.385	65.1129	-82.0757	137.532	46.1029	-98.1457	121.148	16.7963	-101.39	167.713	54.6653	-74.5901	153.388	33.327	-93.9474	134.777	7.98029	-98.1158	184.564	39.6518	-61.4775	172.025	17.6345	-80.623	153.536	-2.83184	-85.079	183.835	77.1699	-31.5182	187.293	82.0307	2.04273	156.102	95.695	-11.3359	
194	1.61667	120.887	77.3926	-1.12655	104.17	54.5421	-21.8763	95.4855	42.8797	-44.9892	96.5216	32.343	-64.191	125.327	75.3977	-75.7682	111.471	54.6399	-89.5596	108.056	26.6866	-91.3228	150.325	67.9396	-84.2458	141.681	45.4969	-100.865	126.16	17.7343	-104.593	167.878	57.8377	-77.1882	160.198	36.7997	-94.5089	144.675	11.8635	-100.07	181.741	46.1905	-66.7932	178.144	24.8738	-79.2389	159.309	6.85634	-88.7389	180.028	80.7259	-30.9666	184.534	86.8582	0.220305	153.339	98.7872	-14.6744	
195	1.625	122.565	77.1149	-4.78992	108.23	54.4223	-25.3772	100.498	42.8532	-45.1222	103.332	33.3709	-67.7775	123.699	77.0661	-76.0008	111.053	56.6229	-91.0406	104.45	25.8869	-92.5996	146.948	73.4151	-83.9271	140.172	50.1843	-102.262	132.796	20.9826	-106.847	169.625	61.1764	-79.0315	162.607	42.4349	-96.1232	146.848	16.1634	-103.398	185.484	50.9815	-67.6958	181.781	29.7304	-81.2179	161.346	9.95083	-93.4434	176.501	85.7057	-27.429	182.069	88.4265	0.499319	152.386	98.6923	-12.7961	
196	1.63333	121.185	76.1758	-3.71891	109.327	54.3257	-27.1813	103.871	43.1678	-48.4067	102.361	33.8275	-70.8037	121.99	79.9963	-77.4242	113.272	58.2288	-91.7175	108.577	29.0971	-95.2792	148.228	75.9278	-85.2529	142.756	53.7388	-104.365	132.756	21.0965	-109.449	167.539	69.3651	-79.2224	165.419	47.0815	-98.7969	152.812	20.7411	-106.308	184.372	58.5885	-66.7112	181.851	34.2777	-85.3699	172.9	13.7502	-95.6244	180.843	90.3677	-30.5536	181.477	91.1799	3.86651	150.582	100.096	-13.6364	
197	1.64167	120.785	75.6219	-2.54028	108.089	54.1426	-29.6269	102.778	44.2048	-52.5498	106.577	35.63	-70.6825	123.426	82.7033	-75.2017	115.282	58.026	-93.8568	116.543	32.5501	-97.1337	147.738	82.7822	-80.9437	144.018	62.0546	-103.078	137.062	24.6456	-110.36	167.141	74.5305	-78.6228	166.805	51.7584	-100.115	154.224	29.4722	-108.848	190.481	62.8418	-64.4885	184.711	41.1439	-86.0275	172.675	21.7474	-96.0158	176.657	92.3151	-29.3108	175.854	94.473	5.645	145.472	104.283	-12.4155	
198	1.65	120.734	75.5495	-3.35192	110.59	54.8078	-24.8258	103.946	45.0161	-52.1368	104.77	36.2521	-76.716	121.69	87.0333	-73.2104	117.545	61.7335	-94.6728	114.33	31.6161	-98.8694	151.851	84.1554	-82.4175	142.249	63.5032	-104.96	137.755	31.2479	-112.478	170.372	77.7221	-77.0224	166.712	57.6514	-101.57	156.395	35.5035	-109.521	189.353	67.3733	-66.4498	187.328	45.5267	-86.0518	178.766	26.1517	-97.6509	175.22	95.054	-25.4783	174.008	98.0728	1.76326	146.687	102.96	-10.2244	
199	1.65833	119.352	75.2734	-6.80131	107.217	53.7775	-30.8932	105.898	46.2322	-55.7345	108.087	38.9328	-76.0411	122.693	86.39	-76.4351	113.43	67.6718	-93.6977	117.664	38.6261	-99.9349	148.601	88.0766	-82.9161	143.212	69.4711	-103.455	141.614	33.7693	-112.503	169.308	81.8716	-77.2749	164.298	64.0082	-100.883	158.243	35.4646	-111.578	189.557	71.8788	-63.7117	187.442	51.8203	-87.5707	177.573	31.3149	-99.5759	175.581	97.782	-27.6248	173.471	97.713	6.14191	139.906	105.87	-9.18456	
200	1.66667	117.474	74.3554	-4.01294	107.969	54.2437	-26.0253	103.797	47.0835	-55.8172	105.792	41.1253	-76.969	117.89	91.1073	-72.7772	113.276	69.4575	-95.3031	116.673	41.5546	-100.693	147.214	91.1449	-82.5738	144.47	73.2805	-104.361	141.436	40.5694	-114.634	168.312	86.2081	-77.9177	166.703	66.3491	-101.08	158.746	37.8555	-112.818	189.17	76.7174	-64.772	184.498	58.2757	-88.4669	176.946	36.1066	-101.927	168.204	102.513	-24.8693	173.648	98.6948	8.74344	140.545	105.679	-8.97316	
201	1.675	113.176	74.6617	-1.45996	104.258	55.8963	-30.549	101.183	49.7185	-53.2954	105.325	44.9467	-78.299	115.98	94.6516	-71.6253	113.221	73.6445	-96.4288	115.044	45.7755	-101.958	145.769	95.6444	-80.6287	138.124	78.951	-105.413	137.41	43.6071	-116.613	166.987	90.0632	-75.2476	166.982	73.0089	-99.972	154.72	46.6877	-113.423	184.961	81.2916	-63.9793	185.79	65.6652	-87.1309	175.055	41.7825	-102.35	170.903	102.667	-24.3469	167.926	101.375	6.44948	134.878	104.304	-5.58527	
202	1.68333	112.555	74.4343	-4.87104	104.661	56.4189	-29.5922	100.483	51.9697	-58.2242	108.882	51.2584	-80.5894	111.657	97.4353	-73.9041	111.266	77.654	-95.8958	116.671	49.0764	-103.028	139.164	101.226	-76.7919	139.324	83.6588	-105.83	134.827	54.1686	-115.968	160.129	96.238	-76.6672	161.93	78.0873	-101.768	155.682	53.9675	-113.42	183.479	86.7728	-65.6117	180.393	73.0584	-88.5244	175.338	49.011	-104.665	166.57	107.001	-19.7366	168.335	100.292	6.94936	133.953	105.493	-5.41071	
203	1.69167	107.099	74.2307	-6.03456	100.568	57.535	-31.2761	101.221	56.0706	-59.6726	106.732	56.0147	-83.7818	109.904	100.527	-73.1076	107.041	83.3786	-95.509	113.531	51.2239	-103.34	137.568	107.025	-79.7514	136.263	91.1089	-104.095	137.671	59.1601	-117.027	160.546	102.297	-74.9402	158.594	85.9192	-102.41	155.144	58.9516	-115.111	178.733	94.3131	-67.7586	177.071	79.2598	-89.4463	173.564	59.3879	-104.837	162.122	109.847	-19.35	166.663	101.916	12.5245	129.575	108.556	-4.99452	
204	1.7	108.702	72.7746	-3.292	103.093	60.8237	-32.9854	98.4569	59.909	-60.7644	105.301	60.9957	-82.5332	111.224	106.675	-72.4703	106.875	88.1526	-95.5776	117.767	58.2927	-104.197	137.668	112.658	-76.1134	138.255	98.5055	-102.791	134.398	68.0798	-117.738	156.761	109.073	-75.1906	160.228	93.2548	-101.268	151.288	68.834	-115.485	177.129	100.33	-62.9876	180.264	85.7948	-88.0594	172.142	67.865	-105.006	160.158	109.455	-16.5924	162.244	102.318	11.3831	128.037	106.804	-1.86684	
205	1.70833	107.237	73.8953	-5.36355	97.3567	61.7661	-32.6553	97.1244	64.0836	-60.6575	106.599	69.6638	-83.4606	109.547	111.178	-69.8351	106.779	94.5527	-94.9084	114.381	71.6733	-104.72	136.438	118.305	-69.5875	136.477	106.99	-99.3074	136.335	73.4044	-117.134	158.177	115.753	-71.9492	156.479	103.968	-96.2238	150.154	79.0257	-112.627	174.078	105.402	-58.2306	177.372	95.274	-85.7035	169.376	74.8013	-105.83	160.699	114.299	-14.0273	157.12	102.101	15.8418	127.424	108.832	0.161989	
